<?xml version="1.0" encoding="UTF-8"?>
<svg version="1.1" xmlns="http://www.w3.org/2000/svg" width="6000" height="2000">
<path d="M0 0 C7.62957489 -0.02784344 15.25914435 -0.04877831 22.8887589 -0.06152695 C26.43369071 -0.06765388 29.9785871 -0.07592716 33.52349854 -0.08958435 C54.17427373 -0.16699243 74.50132907 0.27212024 95 3 C96.00794617 3.1308197 96.00794617 3.1308197 97.03625488 3.26428223 C190.36063865 15.3821414 278.74027047 50.43577944 378.28076172 124.58496094 C379.81171112 125.84502665 381.35980647 127.08419469 382.91015625 128.3203125 C389.73819326 133.77067489 396.08541497 139.65958526 402.43359375 145.65234375 C405.2856866 148.34227496 408.18590216 150.96749166 411.125 153.5625 C419.26994672 160.85079957 427.12753462 168.58528831 434.203125 176.921875 C436.06984551 179.08077785 437.99875642 181.17535822 439.94067383 183.26660156 C445.55294693 189.31543786 450.84277462 195.55559936 456 202 C456.92240375 203.13083957 457.84562196 204.26101515 458.76953125 205.390625 C476.79868362 227.5326871 492.68425558 251.31112372 507 276 C507.41137207 276.70560059 507.82274414 277.41120117 508.24658203 278.13818359 C554 357.06142726 554 357.06142726 554 384 C553.22907992 384.00135653 552.45815985 384.00271306 551.66387856 384.00411069 C505.87670711 384.08492686 460.08956556 384.17594871 414.30244083 384.28005161 C408.79309874 384.29256906 403.28375646 384.30500206 397.77441406 384.31738281 C396.12933889 384.3210818 396.12933889 384.3210818 394.45102988 384.32485552 C376.74062048 384.36447684 359.03020478 384.39727096 341.31977715 384.42749982 C323.11965309 384.45871806 304.91955553 384.49737098 286.71946132 384.54279006 C275.50751295 384.57053968 264.29558375 384.59263064 253.08361046 384.60726251 C245.37384606 384.61788195 237.66411899 384.63578427 229.95438285 384.65916704 C225.51986802 384.67240902 221.08540501 384.68267755 216.65086937 384.68421364 C171.53373907 384.70526149 117.6942913 384.80374925 82 417 C81.45859375 417.57105469 80.9171875 418.14210938 80.359375 418.73046875 C79 420 79 420 77 420 C76.72414063 420.60070312 76.44828125 421.20140625 76.1640625 421.8203125 C75 424 75 424 72.375 426.875 C55.73589517 445.99573171 51.64962348 472.64755947 52.79296875 497.13964844 C54.08444006 514.98266477 59.70460314 531.96707247 71 546 C71.85464844 547.11568359 71.85464844 547.11568359 72.7265625 548.25390625 C91.54711736 571.27905315 124.2826726 580.11243875 152.56136417 583.28759193 C161.2380928 584.08127367 169.8747513 584.15206318 178.57788086 584.15771484 C180.21371087 584.16239427 181.8495396 584.16753965 183.48536682 584.17311096 C186.98501905 584.18431133 190.48466316 584.19278371 193.98432732 584.19923019 C199.52950498 584.20999818 205.07462354 584.23026384 210.61976624 584.25234985 C226.38019101 584.31398624 242.14061044 584.36826778 257.90112305 584.40136719 C266.62325958 584.41976412 275.345295 584.44875589 284.06735712 584.4893719 C288.67138938 584.51034201 293.27529485 584.52588506 297.87937737 584.52817917 C302.21092618 584.53034056 306.54221025 584.5463603 310.87367821 584.57256889 C312.45335679 584.57970454 314.03306765 584.58189108 315.61275864 584.57846642 C329.06257498 584.5539869 341.30246277 585.17718291 351.75 594.4375 C355.89596732 599.73736113 356.24307094 607.37377846 355.80859375 613.85546875 C354.73983581 620.21987413 352.40828578 624.59171422 347.8125 629.1875 C338.55232147 635.15517061 327.94855702 635.14864645 317.30055237 635.12025452 C315.53973694 635.12153615 315.53973694 635.12153615 313.74334949 635.12284368 C310.49829986 635.12420273 307.25329047 635.12108989 304.00824559 635.11606562 C300.5039051 635.11173768 296.99956641 635.11320921 293.495224 635.1139679 C287.42809673 635.11449164 281.36098023 635.1113604 275.29385567 635.10573006 C266.52186734 635.09759489 257.7498842 635.09499777 248.97789251 635.09374207 C234.74510573 635.09155472 220.51232468 635.08490322 206.27954102 635.07543945 C192.45564808 635.06625714 178.6317567 635.05918031 164.80786133 635.05493164 C163.95541966 635.05466892 163.10297799 635.05440619 162.22470475 635.05413551 C157.94815482 635.05283045 153.67160488 635.05156675 149.39505494 635.05032361 C113.93003253 635.03996087 78.4650168 635.02235117 43 635 C43.00589142 636.08960022 43.01178284 637.17920044 43.01785278 638.30181885 C43.03842828 642.39783665 43.05120802 646.49385002 43.0617981 650.58990479 C43.06740745 652.35268933 43.07504764 654.11546876 43.08486938 655.87823486 C43.19911411 676.93062555 41.57631899 697.14632644 31.90014648 716.2487793 C31.54331284 716.95536179 31.18647919 717.66194427 30.8188324 718.38993835 C30.54861771 718.9212587 30.27840302 719.45257904 30 720 C66.75650193 720.04591254 103.51299949 720.08108745 140.26952436 720.10213066 C144.62222853 720.10463167 148.97493264 720.10722035 153.32763672 720.10986328 C154.62729588 720.11065021 154.62729588 720.11065021 155.95321079 720.11145304 C169.92921818 720.1201238 183.90520889 720.13587515 197.88120644 720.15430559 C212.25282866 720.17309779 226.62444223 720.18413628 240.99607623 720.18817699 C249.84341825 720.19090286 258.69071311 720.19946915 267.53804059 720.21583293 C273.62887988 720.22651528 279.71969528 720.2295756 285.81054322 720.22700275 C289.30940681 720.22573868 292.80818879 720.22748678 296.30703735 720.23841095 C333.14670086 720.33624184 370.4509843 718.77006191 404 702 C404.60924316 701.69868164 405.21848633 701.39736328 405.84619141 701.08691406 C415.25410496 696.34152932 422.6315808 690.45653183 430 683 C430.66644531 682.34386719 431.33289062 681.68773437 432.01953125 681.01171875 C440.89977927 671.65037377 446.48853457 659.25888822 450 647 C450.19609863 646.31856934 450.39219727 645.63713867 450.59423828 644.93505859 C456.24260523 624.37832819 457.02719123 599.27781 450 579 C449.62617187 577.91332031 449.25234375 576.82664062 448.8671875 575.70703125 C441.02095803 555.20810724 425.78358388 541.53933272 406.125 532.75 C403.76168034 531.80362642 401.38621941 530.88705113 399 530 C397.8140625 529.55914063 396.628125 529.11828125 395.40625 528.6640625 C374.46186278 521.52393049 352.32308831 519.85648317 330.34619141 519.84228516 C328.70213183 519.83760577 327.05807352 519.8324604 325.41401672 519.82688904 C321.89635976 519.81568773 318.37871086 519.80721575 314.86104202 519.80076981 C309.28618556 519.7900009 303.71138786 519.76973459 298.13656616 519.74765015 C282.29159231 519.68601818 266.44662365 519.63174643 250.6015625 519.59863281 C241.83290498 519.58022854 233.06434791 519.55122692 224.29576433 519.5106281 C219.66766711 519.48966862 215.03969577 519.4741165 210.41154861 519.47182083 C206.05619503 519.46965743 201.70110422 519.4536177 197.34583092 519.42743111 C195.75850948 519.42030274 194.17115599 519.41810527 192.58382225 519.42153358 C166.34781783 519.46910016 166.34781783 519.46910016 158 512 C151.97582629 505.47381182 151.45074864 499.29665718 151.6953125 490.67578125 C152.16481501 485.01165483 153.43387353 481.44362294 157.5546875 477.51953125 C167.91336176 469.93947133 182.50709597 470.56595213 194.75521851 470.63923645 C196.40484854 470.63792535 198.05447795 470.63529336 199.70410407 470.63146895 C204.19897963 470.62481172 208.69363772 470.63669037 213.18848562 470.65180314 C218.04990686 470.6648286 222.91131706 470.66036946 227.77275085 470.65809631 C236.18286388 470.65652767 244.59290678 470.66589394 253.00300217 470.68280983 C265.16239082 470.70725097 277.32174575 470.71501032 289.4811563 470.7187738 C309.21174059 470.72533028 328.94228754 470.74526959 348.67285156 470.77368164 C367.8326804 470.80124305 386.99249908 470.82246643 406.15234375 470.83520508 C407.33450287 470.83599325 408.51666198 470.83678142 409.7346441 470.83759347 C415.66553144 470.84150875 421.59641886 470.84529983 427.52730632 470.84902918 C476.68489667 470.88010005 525.84244651 470.9329139 575 471 C575.55568418 475.58526335 576.10679946 480.17104698 576.65405273 484.75732422 C576.84003405 486.31085294 577.02716974 487.86424399 577.21557617 489.41748047 C578.69696304 501.6399097 580.08147095 513.87281645 580.16113281 526.20019531 C580.17059433 527.43198517 580.18005585 528.66377502 580.18980408 529.93289185 C580.19419998 531.21831879 580.19859589 532.50374573 580.203125 533.828125 C580.2101455 535.21792635 580.21723233 536.60772737 580.22438049 537.99752808 C580.24378616 542.41502342 580.24881441 546.83246634 580.25 551.25 C580.25044186 552.00207481 580.25088371 552.75414963 580.25133896 553.52901459 C580.25821218 575.8250917 580.02286552 597.86350321 577 620 C576.82077087 621.36777074 576.6420772 622.73561173 576.46386719 624.10351562 C563.79419906 720.2034123 526.324101 812.22520726 467 889 C466.31260742 889.8957373 466.31260742 889.8957373 465.61132812 890.80957031 C456.20132668 903.05591971 446.2023941 914.75416828 435.703125 926.078125 C433.91061929 928.01568898 432.12918799 929.96356122 430.359375 931.921875 C421.41706268 941.80548335 412.22753064 951.61723419 402.04296875 960.23828125 C399.89471688 962.09078907 397.81377143 964.00851824 395.73535156 965.9387207 C389.68693081 971.55115908 383.46008812 976.86169143 377 982 C376.49307617 982.40653809 375.98615234 982.81307617 375.46386719 983.23193359 C303.5454653 1040.87662208 218.77305092 1079.9331815 46.171875 1105.203125 C44.7823026 1105.20997535 43.39273046 1105.21687874 42.00315857 1105.22383118 C37.58543692 1105.24274664 33.16775657 1105.24723472 28.75 1105.25 C27.99718876 1105.251031 27.24437752 1105.252062 26.46875381 1105.25312424 C8.02746688 1105.27684888 -10.26510857 1105.18748948 -28.61547852 1103.13769531 C-38.15784752 1102.07763994 -47.59381291 1101.70487216 -57.18429565 1101.54263306 C-112.72563534 1100.59668668 -169.40450199 1085.83572046 -218.29882812 1059.45214844 C-221.17655947 1057.90508173 -224.06430717 1056.37781815 -226.953125 1054.8515625 C-241.91875582 1046.90314969 -256.63476253 1038.75068421 -269.703125 1027.875 C-272.10988809 1025.91029543 -274.5920167 1024.11106802 -277.125 1022.3125 C-287.5005509 1014.84446479 -297.60494518 1006.67385767 -307 998 C-307.88945313 997.20980469 -308.77890625 996.41960938 -309.6953125 995.60546875 C-310.62085938 994.74566406 -311.54640625 993.88585938 -312.5 993 C-313.3559375 992.21625 -314.211875 991.4325 -315.09375 990.625 C-317.5423094 987.25321329 -317.35936262 985.07277641 -317 981 C-315.3125 980.25 -315.3125 980.25 -313 980 C-311.35 981.32 -309.7 982.64 -308 984 C-307.67 831.54 -307.34 679.08 -307 522 C-303.46192479 524.12284513 -301.14139009 525.6000159 -298.29296875 528.328125 C-297.2884668 529.28138672 -297.2884668 529.28138672 -296.26367188 530.25390625 C-295.2359668 531.24197266 -295.2359668 531.24197266 -294.1875 532.25 C-289.47425368 536.751263 -284.72184474 541.17150349 -279.79711914 545.44140625 C-277.54808695 547.3919322 -275.33434714 549.37970725 -273.125 551.375 C-272.28195312 552.13554688 -271.43890625 552.89609375 -270.5703125 553.6796875 C-269.72210937 554.44539063 -268.87390625 555.21109375 -268 556 C-266.33359149 557.50028679 -264.66692647 559.00028872 -263 560.5 C-259.66666667 563.5 -256.33333333 566.5 -253 569.5 C-252.17757812 570.23992188 -251.35515625 570.97984375 -250.5078125 571.7421875 C-248.81407106 573.26708244 -247.12138831 574.79315402 -245.4296875 576.3203125 C-241.68435744 579.69912708 -237.93481793 583.06895965 -234.125 586.375 C-230.158251 589.82783819 -226.29317331 593.38877381 -222.42456055 596.95043945 C-219.01401194 600.08517052 -215.55840884 603.15726302 -212.05859375 606.19140625 C-208.54557698 609.2777948 -205.10700182 612.44628778 -201.65234375 615.59765625 C-199.47539004 617.56941844 -197.28161326 619.51365337 -195.0625 621.4375 C-191.11410526 624.86700919 -187.27142542 628.40876823 -183.42431641 631.95068359 C-180.01383111 635.08531289 -176.55832184 638.15733845 -173.05859375 641.19140625 C-169.54557698 644.2777948 -166.10700182 647.44628778 -162.65234375 650.59765625 C-160.47539004 652.56941844 -158.28161326 654.51365337 -156.0625 656.4375 C-152.11410526 659.86700919 -148.27142542 663.40876823 -144.42431641 666.95068359 C-141.01383111 670.08531289 -137.55832184 673.15733845 -134.05859375 676.19140625 C-130.54557698 679.2777948 -127.10700182 682.44628778 -123.65234375 685.59765625 C-121.47539004 687.56941844 -119.28161326 689.51365337 -117.0625 691.4375 C-114.2349045 693.8900063 -111.47208046 696.40336011 -108.7277832 698.94873047 C-91.53073493 714.87283192 -76.89099237 725.68097365 -52.78125 725.2734375 C-39.34345781 724.72968068 -26.26400649 719.74277068 -16.75 710.0625 C0.72957747 688.67829875 -0.85095226 662.18388942 -0.84178162 636.14639282 C-0.8377571 633.39956545 -0.83225187 630.65274147 -0.82681805 627.90591657 C-0.81581009 621.94768738 -0.80840858 615.98946235 -0.80341911 610.0312252 C-0.79598346 601.17165613 -0.78289364 592.3121016 -0.76867336 583.45254114 C-0.74490703 568.54665893 -0.72568434 553.64077412 -0.70907402 538.73488235 C-0.69261883 523.98160064 -0.67413015 509.22832377 -0.65294075 494.47504807 C-0.65162314 493.55686251 -0.65030554 492.63867695 -0.648948 491.69266758 C-0.64224568 487.02944318 -0.63550718 482.36621884 -0.62875474 477.70299451 C-0.58102394 444.69523021 -0.53782968 411.68746138 -0.49731445 378.6796875 C-0.45795028 346.61816071 -0.4165243 314.55663767 -0.37231445 282.49511719 C-0.37095192 281.50639948 -0.36958939 280.51768178 -0.36818558 279.49900294 C-0.3544999 269.56966341 -0.34077239 259.64032394 -0.32701423 249.71098452 C-0.2989896 229.48476272 -0.27124416 209.25854053 -0.2436676 189.03231812 C-0.2423994 188.10240102 -0.2411312 187.17248392 -0.23982458 186.21438752 C-0.15520499 124.14293111 -0.07709303 62.07146616 0 0 Z " fill="#001E44" transform="translate(1035,540)"/>
<path d="M0 0 C1.43408556 -0.00043649 2.86817105 -0.00131282 4.30225611 -0.00258917 C8.22913612 -0.00481889 12.15598872 -0.00083371 16.08286524 0.0041889 C20.32270969 0.0085151 24.56255264 0.00704543 28.80239868 0.00628662 C36.14363469 0.00576276 43.48486181 0.00889516 50.82609558 0.01452446 C61.4402332 0.02265814 72.05436652 0.0252566 82.66850692 0.02651245 C99.89005035 0.02870003 117.11158903 0.03535216 134.33312988 0.04481506 C151.06034319 0.05399678 167.7875552 0.06106243 184.51477051 0.06532288 C185.55668257 0.06559087 186.59859464 0.06585887 187.6720798 0.06613499 C195.8207499 0.06821446 203.96942002 0.07017137 212.11809015 0.07208955 C252.04621973 0.08151994 291.97433743 0.10163904 331.90246582 0.12025452 C331.90246582 53.25025452 331.90246582 106.38025452 331.90246582 161.12025452 C309.36320801 161.14603577 286.8239502 161.17181702 263.60168457 161.19837952 C249.34191079 161.22353911 235.08214894 161.24967743 220.8223877 161.28041077 C213.33207256 161.2965026 205.84175696 161.31234602 198.35144043 161.32777405 C197.41267608 161.32971799 196.47391173 161.33166193 195.50669998 161.33366477 C180.35921967 161.36466928 165.21175452 161.38165549 150.06424847 161.39344874 C134.51405155 161.4058681 118.96393399 161.43338724 103.41378719 161.47486758 C93.82168487 161.49998049 84.22971418 161.51337341 74.63757852 161.51168409 C68.05621249 161.51165429 61.47498036 161.52631686 54.89366653 161.5524188 C51.09889573 161.5670388 47.30439949 161.57529013 43.50960541 161.56605721 C39.38811689 161.55619947 35.26735052 161.5773371 31.1459198 161.60127258 C29.95620329 161.59351217 28.76648678 161.58575175 27.54071826 161.57775617 C18.83687344 161.66706255 10.8135414 162.94250561 3.90246582 168.55775452 C-0.51612472 174.21907364 -1.72015991 177.94006089 -1.49987793 185.11244202 C-0.88130575 189.73671951 0.5959998 192.82902567 3.90246582 196.12025452 C10.91720949 201.11295464 16.85066664 202.26909189 25.3419342 202.26501465 C26.63164711 202.27030492 26.63164711 202.27030492 27.94741482 202.27570206 C30.83421133 202.28639272 33.72097485 202.29007086 36.60778809 202.2938385 C38.67604715 202.30014406 40.74430486 202.30690986 42.81256104 202.31410217 C47.27216369 202.32878017 51.73176109 202.34050226 56.19137764 202.35004997 C63.25817939 202.36551692 70.32493654 202.38947076 77.39170837 202.41494751 C97.48958508 202.48609636 117.58748811 202.54572258 137.6854248 202.59706116 C148.78146182 202.6254805 159.87745519 202.66093102 170.97344631 202.70371491 C177.98128715 202.73031671 184.98907863 202.74832718 191.99695981 202.75975215 C196.38569993 202.76896204 200.77438093 202.78636339 205.16308594 202.80593109 C207.17885838 202.81332447 209.1946461 202.81748261 211.21043205 202.81792641 C227.46398186 202.82438674 243.81843896 203.35560454 259.65246582 207.37025452 C260.96175049 207.69449402 260.96175049 207.69449402 262.29748535 208.02528381 C280.5485487 212.72458918 297.35463595 221.14086909 311.90246582 233.12025452 C312.82672363 233.87951233 313.75098145 234.63877014 314.70324707 235.42103577 C346.11263853 262.56550279 359.90056044 305.90522465 362.90246582 346.12025452 C362.96417969 346.94187073 363.02589355 347.76348694 363.08947754 348.61000061 C367.18113632 407.44523205 357.38815385 470.22365694 317.90246582 516.12025452 C300.57356366 535.609009 278.35448129 548.1072661 253.33996582 554.87025452 C252.24398071 555.16851135 252.24398071 555.16851135 251.12585449 555.47279358 C239.0494716 558.55973043 227.01326623 559.41572675 214.58987427 559.36076355 C213.09698742 559.36163795 211.60410088 559.36339322 210.11121595 559.36594188 C206.0496416 559.37037345 201.98817451 559.36247013 197.92661381 559.35238576 C193.53145438 559.34369246 189.13630026 559.34667555 184.74113464 559.34819031 C177.1397116 559.34923546 169.53832308 559.34299764 161.93690872 559.33171463 C150.94674749 559.31541229 139.95660284 559.31024679 128.96643083 559.30773865 C111.13259971 559.30336895 93.29878697 559.29007959 75.46496582 559.27113342 C58.14823496 559.25275581 40.83150914 559.23863147 23.51477051 559.2301178 C22.43523889 559.2295818 21.35570726 559.22904581 20.24346256 559.22849357 C11.79994115 559.22433436 3.35641963 559.22042064 -5.08710194 559.21658444 C-46.42392955 559.19774087 -87.76071114 559.15749863 -129.09753418 559.12025452 C-129.09753418 505.99025452 -129.09753418 452.86025452 -129.09753418 398.12025452 C-106.41390137 398.07127014 -83.73026855 398.02228577 -60.35925293 397.97181702 C-46.00833775 397.9364412 -31.65742626 397.90058033 -17.30651855 397.86244202 C-9.76835163 397.84243454 -2.23018439 397.82255018 5.3079834 397.8028717 C6.72512673 397.79916455 6.72512673 397.79916455 8.17089921 397.7953825 C23.41535451 397.75568342 38.65981721 397.72293227 53.90429399 397.6927547 C69.55391102 397.66162021 85.20349673 397.62300226 100.85307854 397.57746446 C110.50656487 397.5496094 120.16002833 397.52756344 129.813544 397.51299201 C136.43692347 397.50243474 143.06025864 397.48459626 149.68360469 397.46108748 C153.50260741 397.44774568 157.32154814 397.43756113 161.14057541 397.43604088 C165.28815886 397.43430557 169.43554149 397.41721042 173.58308411 397.39872742 C175.37933171 397.40162952 175.37933171 397.40162952 177.21186715 397.40459025 C188.56128476 397.32911824 198.78628195 396.69183247 207.43371582 388.70619202 C211.08550816 384.73592941 212.84828604 380.54712562 212.93371582 375.14369202 C212.48541908 369.33824928 210.64285225 364.56333487 206.24621582 360.64369202 C195.52948524 353.13319641 181.01995591 354.8313324 168.57019043 354.84901428 C166.51897984 354.84462124 164.46777104 354.83931699 162.41656494 354.83317566 C158.01545562 354.82171711 153.61439418 354.81621927 149.21327019 354.81529427 C142.23857679 354.81334398 135.26398147 354.79523695 128.2893219 354.77453613 C110.96252135 354.72547336 93.63569422 354.69452169 76.30883789 354.67323303 C62.8440578 354.65666305 49.37936223 354.63371361 35.91463858 354.59021229 C28.99763078 354.56856938 22.08078409 354.56036559 15.16374481 354.56260502 C10.83841023 354.5609246 6.51317865 354.54679257 2.18788147 354.52939224 C0.20070719 354.52384752 -1.78648894 354.52325611 -3.77366447 354.52832985 C-19.93057165 354.56521819 -35.29927378 352.95712807 -50.84753418 348.30775452 C-52.16745361 347.91873962 -52.16745361 347.91873962 -53.51403809 347.52186584 C-88.2233212 337.01765715 -116.35171408 312.99961901 -133.88659668 281.45082092 C-160.22642264 231.94478521 -161.29563301 169.20030704 -146.09753418 116.12025452 C-142.02275376 102.87453595 -136.79712034 90.24650547 -130.09753418 78.12025452 C-129.59383301 77.19188782 -129.59383301 77.19188782 -129.07995605 76.24476624 C-110.75728058 42.8067527 -80.36675416 17.78987931 -44.09753418 6.12025452 C-29.35232617 1.99189346 -15.29482531 -0.03466758 0 0 Z " fill="#001E44" transform="translate(1859.0975341796875,676.8797454833984)"/>
<path d="M0 0 C3.84037453 0.00776296 7.68073101 0.00050612 11.52110672 -0.0041585 C17.96214613 -0.0095689 24.4030813 -0.00255027 30.84410477 0.01186323 C38.21960846 0.02818054 45.59486307 0.02288865 52.97036076 0.00638402 C59.37968052 -0.00736731 65.78892669 -0.0090849 72.19825649 -0.00129998 C75.99261091 0.00330268 79.78684954 0.00421242 83.58119583 -0.00590944 C153.10141292 -0.16586533 216.63350798 20.75973617 266.68297195 70.02797651 C275.23456753 78.58596162 282.72187734 87.5250414 289.68297195 97.40297651 C290.5225004 98.5503427 291.36233176 99.69748733 292.2025032 100.84438276 C324.50940655 146.0507118 339.53991394 206.02179401 339.9212532 260.99672651 C339.93104706 262.16999998 339.94084091 263.34327345 339.95093155 264.55210066 C340.51481467 349.67669709 322.71849832 430.96088088 262.68297195 494.40297651 C261.80769852 495.33239058 260.93242508 496.26180464 260.0306282 497.21938276 C253.10368866 504.37010009 245.63890267 510.44701733 237.68297195 516.40297651 C237.13834305 516.81902143 236.59371414 517.23506636 236.03258133 517.6637187 C204.73603021 541.52402762 167.32110162 555.24514357 128.68297195 561.40297651 C127.62575439 561.57634031 126.56853683 561.74970411 125.47928238 561.92832136 C111.0639708 563.95517372 96.56781433 563.71472497 82.04276991 563.70455909 C78.96724035 563.70347525 75.8917308 563.70840852 72.81620562 563.71316451 C65.54244918 563.72419314 58.26874439 563.72473571 50.99498367 563.71865034 C43.55997318 563.71262437 36.12515259 563.72490191 28.69017446 563.74622041 C22.2462014 563.76399913 15.80228787 563.76981227 9.35829127 563.76658267 C5.53646642 563.76479438 1.71477685 563.76715315 -2.10702515 563.78129721 C-57.74529384 563.96944365 -111.44849971 550.46876363 -156.31702805 516.40297651 C-157.19487961 515.73782026 -158.07273117 515.07266401 -158.9771843 514.38735151 C-165.76001403 509.0986792 -172.08175924 503.31726866 -178.31702805 497.40297651 C-178.82024582 496.92844038 -179.32346359 496.45390425 -179.84193039 495.96498823 C-187.28636321 488.89888297 -193.81544301 481.4053287 -199.96693039 473.19301558 C-201.28821545 471.44117795 -202.63718584 469.71425296 -203.9928093 467.98891401 C-244.1730552 416.04539641 -258.74651481 346.9904694 -258.63270187 282.5765605 C-258.62955254 278.86930793 -258.65306729 275.16286509 -258.67835617 271.45571089 C-258.84926048 206.18700494 -241.81438969 138.90331466 -200.31702805 87.40297651 C-199.83798019 86.8082353 -199.35893234 86.21349409 -198.86536789 85.60073042 C-187.66871914 71.8502606 -175.31670994 59.21505676 -161.03333664 48.67055464 C-159.33135216 47.41355557 -157.64657806 46.13571331 -155.9615593 44.85610151 C-146.92470987 38.09610944 -137.31493119 32.61017369 -127.31702805 27.40297651 C-126.60014816 27.02286421 -125.88326828 26.6427519 -125.14466476 26.25112104 C-86.36212747 5.89271784 -43.26337043 -0.11541009 0 0 Z M-70.31702805 189.40297651 C-95.12295313 217.94484035 -98.44234658 259.58353219 -96.10609055 295.66030073 C-93.4114088 328.20572776 -83.3353681 361.46867687 -58.4693718 383.98110151 C-42.65219532 396.49859783 -24.42085061 401.54178494 -4.47913742 401.56410933 C-3.40980972 401.56907423 -2.34048203 401.57403913 -1.23875046 401.57915449 C2.28724699 401.59371781 5.8131994 401.60056968 9.33922195 401.60610151 C10.54972717 401.60892889 11.76023239 401.61175627 13.00741959 401.61466932 C19.41782727 401.62964133 25.82821258 401.63888236 32.23863602 401.64321089 C38.82742386 401.64868145 45.4160036 401.67268552 52.00472641 401.70118284 C57.0991562 401.71990608 62.19353692 401.72502004 67.2879982 401.72654676 C69.71502185 401.72955379 72.14204505 401.73751549 74.56903458 401.75073195 C100.4335903 401.8814868 124.5594559 398.64195328 144.24547195 379.96547651 C171.69774398 351.10539567 178.70992741 309.80426955 177.9681282 271.31313276 C176.92020284 239.92360269 169.8339028 205.66675428 145.99547195 183.27016401 C129.08420809 169.61546109 109.88855242 163.26473207 88.29430008 163.2418437 C87.16645096 163.2368788 86.03860184 163.23191389 84.87657547 163.22679853 C81.15578467 163.21222913 77.43503656 163.20538242 73.71422195 163.19985151 C71.11457189 163.19409434 68.51492182 163.18833668 65.91527176 163.18257856 C61.16033631 163.17342185 56.40541776 163.16711653 51.65047503 163.16408181 C44.69124708 163.15961383 37.7322168 163.14211747 30.77304888 163.11308122 C24.71236728 163.0886878 18.65176598 163.08112912 12.59103775 163.07940626 C10.03004254 163.07639743 7.46904779 163.06842944 4.90808487 163.05522108 C-23.82789224 162.91763093 -49.87944548 167.12783505 -70.31702805 189.40297651 Z " fill="#C81010" transform="translate(2533.3170280456543,673.5970234870911)"/>
<path d="M0 0 C155.43 0 310.86 0 471 0 C471 53.13 471 106.26 471 161 C368.37 161 265.74 161 160 161 C160 238.88 160 316.76 160 397 C265.6 397 371.2 397 480 397 C480 450.46 480 503.92 480 559 C321.6 559 163.2 559 0 559 C0 374.53 0 190.06 0 0 Z " fill="#001E44" transform="translate(4027,679)"/>
<path d="M0 0 C1.17235667 -0.00085442 2.34471334 -0.00170885 3.55259597 -0.00258917 C6.77946622 -0.00394362 10.00629555 -0.00084843 13.23316097 0.0041889 C16.72313365 0.00853049 20.21310461 0.00704435 23.70307922 0.00628662 C29.74068777 0.00576373 35.77828545 0.00888597 41.81589127 0.01452446 C50.54512251 0.02267131 59.27434854 0.02525794 68.00358318 0.02651245 C82.16815307 0.02869797 96.33271718 0.03534449 110.49728394 0.04481506 C124.25216646 0.05400212 138.0070474 0.06106515 151.76193237 0.06532288 C152.61924076 0.06559087 153.47654915 0.06585887 154.35983658 0.06613499 C161.06512226 0.06821456 167.77040797 0.07017143 174.4756937 0.07208955 C207.30971867 0.08151346 240.14372916 0.10163409 272.97775269 0.12025452 C272.97775269 53.25025452 272.97775269 106.38025452 272.97775269 161.12025452 C253.79392456 161.16923889 234.61009644 161.21822327 214.84494019 161.26869202 C202.69519625 161.30407533 190.54545662 161.33994124 178.39572144 161.37806702 C172.01209559 161.39807337 165.62846939 161.41795754 159.24484253 161.43763733 C158.44482044 161.44010877 157.64479834 161.4425802 156.82053316 161.44512653 C143.92504757 161.48478547 131.02955329 161.51755432 118.13404249 161.54775433 C104.88794351 161.57892965 91.64188125 161.61756479 78.3958236 161.66304457 C70.23022002 161.69084813 62.06464311 161.71291617 53.89900507 161.72751702 C48.29039569 161.73810457 42.68183814 161.75597447 37.07326792 161.77942155 C33.84323969 161.79271455 30.61329663 161.80185599 27.38323975 161.80446815 C-0.08517891 161.83064993 -26.09232936 163.97195244 -46.85427856 183.92103577 C-47.9274231 185.00964905 -47.9274231 185.00964905 -49.02224731 186.12025452 C-49.6448645 186.7325592 -50.26748169 187.34486389 -50.90896606 187.97572327 C-74.12882724 212.44789156 -77.73678066 251.04958948 -77.27224731 282.99916077 C-76.34312265 317.34425384 -67.45001674 353.8783772 -41.83474731 378.30775452 C-20.88898219 396.14094965 3.32440441 397.57070741 29.57931519 397.55262756 C32.24175349 397.56165765 34.90416366 397.57185885 37.56658936 397.58351135 C43.26850995 397.60616154 48.97037002 397.61815877 54.67233276 397.62264061 C62.91610205 397.62913618 71.15976254 397.65213279 79.40348768 397.6789839 C92.78271949 397.72212183 106.16194668 397.75216249 119.54122925 397.77381897 C132.52758046 397.79486781 145.5138938 397.82221052 158.50021362 397.85780334 C159.31065148 397.86001686 160.12108934 397.86223037 160.95608592 397.86451095 C167.29550885 397.88187422 173.63493075 397.89959911 179.97435236 397.91743815 C210.97546222 398.00458246 241.97655555 398.06022282 272.97775269 398.12025452 C272.97775269 451.58025452 272.97775269 505.04025452 272.97775269 560.12025452 C202.67573 560.24124856 202.67573 560.24124856 173.19650269 560.26673889 C166.45040871 560.2726114 159.70431495 560.27867253 152.95822144 560.28504944 C152.11285387 560.28584068 151.26748631 560.28663193 150.39650154 560.28744715 C136.7965419 560.30045077 123.1966208 560.32407745 109.59668392 560.3517129 C95.61153696 560.37989147 81.62641 560.39645691 67.64123583 560.40252 C59.03032394 560.4066108 50.41952099 560.41947133 41.80864269 560.44400392 C35.88227171 560.46001535 29.95595601 560.46462058 24.02956504 560.46075865 C20.62402764 560.45886067 17.21882899 560.46321432 13.81330109 560.47787094 C-53.82772533 560.75441448 -115.86399023 537.98562646 -164.20974731 490.24525452 C-170.95988471 483.47322631 -177.17329466 476.50822804 -182.80740356 468.78382874 C-184.02795335 467.11244083 -185.27327541 465.46187949 -186.52224731 463.81166077 C-193.53781577 454.41605455 -199.47004121 444.43824598 -205.02224731 434.12025452 C-205.50451782 433.22532288 -205.98678833 432.33039124 -206.4836731 431.40834045 C-228.79657375 389.25602466 -240.04480124 339.78593958 -240.22537231 292.24525452 C-240.23107239 291.04127014 -240.23677246 289.83728577 -240.24264526 288.59681702 C-240.25203907 286.05548463 -240.2586067 283.51414037 -240.26248169 280.97279358 C-240.27208122 277.185777 -240.30311578 273.39932928 -240.33474731 269.61244202 C-240.4320445 247.39148437 -238.74465967 225.3650643 -234.33474731 203.55775452 C-234.0812854 202.2831134 -233.82782349 201.00847229 -233.56668091 199.69520569 C-229.45360115 179.52547544 -223.3160587 159.95558631 -215.02224731 141.12025452 C-214.67581177 140.32715881 -214.32937622 139.53406311 -213.97244263 138.7169342 C-203.96543212 116.05696074 -190.43803922 95.624824 -174.02224731 77.12025452 C-173.52934204 76.56418518 -173.03643677 76.00811584 -172.52859497 75.43519592 C-129.65772808 27.37956031 -64.2319532 -0.17327182 0 0 Z " fill="#001E44" transform="translate(4806.022247314453,676.8797454833984)"/>
<path d="M0 0 C0 187.77 0 375.54 0 569 C-4.11276365 566.94361817 -6.96715011 564.43537345 -10.25 561.3125 C-11.41984774 560.21537208 -12.59041724 559.11901323 -13.76171875 558.0234375 C-14.60355713 557.23404785 -14.60355713 557.23404785 -15.46240234 556.42871094 C-17.29577592 554.72516979 -19.16804085 553.07271737 -21.0625 551.4375 C-24.43419237 548.52201971 -27.72138808 545.5192008 -31 542.5 C-34.95857261 538.85580449 -38.95176903 535.26086158 -43.015625 531.734375 C-47.05374691 528.20499286 -51.01914681 524.59365774 -55 521 C-56.66640851 519.49971321 -58.33307353 517.99971128 -60 516.5 C-63.33333333 513.5 -66.66666667 510.5 -70 507.5 C-70.82242187 506.76007813 -71.64484375 506.02015625 -72.4921875 505.2578125 C-74.18592894 503.73291756 -75.87861169 502.20684598 -77.5703125 500.6796875 C-81.31564256 497.30087292 -85.06518207 493.93104035 -88.875 490.625 C-92.84252724 487.17148439 -96.7084764 483.6099606 -100.57763672 480.04736328 C-103.35458682 477.49474237 -106.14963313 474.97031795 -109 472.5 C-112.39050844 469.56155935 -115.69966982 466.53883698 -119 463.5 C-122.95859723 459.8558306 -126.95176832 456.26086221 -131.015625 452.734375 C-135.05374691 449.20499286 -139.01914681 445.59365774 -143 442 C-144.66640851 440.49971321 -146.33307353 438.99971128 -148 437.5 C-151.33333333 434.5 -154.66666667 431.5 -158 428.5 C-158.82242187 427.76007813 -159.64484375 427.02015625 -160.4921875 426.2578125 C-162.18592894 424.73291756 -163.87861169 423.20684598 -165.5703125 421.6796875 C-169.31564256 418.30087292 -173.06518207 414.93104035 -176.875 411.625 C-180.84097076 408.17283922 -184.70517646 404.61249119 -188.57324219 401.05175781 C-192.01250072 397.89094652 -195.49019403 394.78489427 -199.02734375 391.734375 C-200.45751146 390.47696022 -201.8635002 389.19187157 -203.25390625 387.890625 C-219.25881821 372.99038594 -234.00533369 366.1439657 -255.79833984 366.86816406 C-269.70831429 367.70109666 -282.82657788 374.66598894 -292 385 C-300.13656076 396.1506802 -304.15744465 409.2946064 -304.1386652 423.01787281 C-304.14150742 423.82393116 -304.14434964 424.62998951 -304.14727798 425.46047387 C-304.15562665 428.17237473 -304.15689333 430.88423289 -304.15821838 433.59614563 C-304.16278361 435.55561731 -304.16778358 437.51508802 -304.17318195 439.47455758 C-304.18677688 444.86760468 -304.19418535 450.26064547 -304.20060861 455.65370524 C-304.20860659 461.4662218 -304.22230644 467.2787252 -304.23532104 473.0912323 C-304.25709233 483.16465659 -304.27523445 493.2380822 -304.29092598 503.31151772 C-304.31361865 517.87609525 -304.34175902 532.44065837 -304.37124526 547.00522354 C-304.41901658 570.63409096 -304.46219923 594.26296477 -304.50268555 617.8918457 C-304.54202953 640.84790511 -304.58345063 663.80395924 -304.62768555 686.76000977 C-304.62904808 687.46753464 -304.63041061 688.17505951 -304.63181442 688.90402453 C-304.64549972 696.00923807 -304.65922727 703.11445152 -304.67298577 710.21966492 C-304.7010128 724.69398411 -304.72875785 739.16830384 -304.7563324 753.6426239 C-304.7576006 754.3081392 -304.7588688 754.9736545 -304.76017542 755.65933693 C-304.8448406 800.10621603 -304.92291168 844.55310719 -305 889 C-305.66 889 -306.32 889 -307 889 C-308.24584961 887.67749023 -308.24584961 887.67749023 -309.65234375 885.80859375 C-310.17562256 885.11926758 -310.69890137 884.42994141 -311.23803711 883.71972656 C-311.79885986 882.9665918 -312.35968262 882.21345703 -312.9375 881.4375 C-313.81257202 880.27492676 -313.81257202 880.27492676 -314.70532227 879.08886719 C-315.9057139 877.49052229 -317.10288192 875.88975148 -318.296875 874.28662109 C-319.79489907 872.27536916 -321.30214162 870.27152001 -322.8125 868.26953125 C-335.31502234 851.58254784 -346.54532238 834.03009574 -357 816 C-357.41137207 815.29439941 -357.82274414 814.58879883 -358.24658203 813.86181641 C-402.49128233 737.54106448 -429.90013849 646.76957378 -430.203125 558.171875 C-430.2101455 556.78207365 -430.21723233 555.39227263 -430.22438049 554.00247192 C-430.24378616 549.58497658 -430.24881441 545.16753366 -430.25 540.75 C-430.25044186 539.99792519 -430.25088371 539.24585037 -430.25133896 538.47098541 C-430.25821218 516.1749083 -430.02286552 494.13649679 -427 472 C-426.82077087 470.63222926 -426.6420772 469.26438827 -426.46386719 467.89648438 C-414.2955578 375.59941208 -379.29272032 287.20323041 -320 207 C-319.58153809 206.44119141 -319.16307617 205.88238281 -318.73193359 205.30664062 C-313.27457187 198.04151452 -307.57184056 191.03221893 -301.66015625 184.1328125 C-299.17016182 181.22019198 -296.77035021 178.24106339 -294.375 175.25 C-290.93058122 171.01213475 -287.28232378 167.13578461 -283.3359375 163.36328125 C-281.37006503 161.37439689 -279.54773087 159.3497261 -277.72265625 157.234375 C-274.00888094 152.95388076 -270.0800252 148.93178012 -266.0625 144.9375 C-265.39798828 144.26912109 -264.73347656 143.60074219 -264.04882812 142.91210938 C-260.11369454 138.98460941 -256.06883112 135.24610994 -251.85961914 131.61450195 C-249.24451436 129.34409524 -246.72165311 126.98548388 -244.1875 124.625 C-238.64350308 119.51070231 -232.90333408 114.69710479 -227 110 C-226.48775879 109.58814453 -225.97551758 109.17628906 -225.44775391 108.75195312 C-169.4479955 63.735526 -75.82076732 0 0 0 Z " fill="#C81010" transform="translate(940,553)"/>
<path d="M0 0 C172.26 0 344.52 0 522 0 C522 52.47 522 104.94 522 159 C462.27 159 402.54 159 341 159 C341 330.93 341 502.86 341 680 C288.2 680 235.4 680 181 680 C181 508.07 181 336.14 181 159 C121.27 159 61.54 159 0 159 C0 106.53 0 54.06 0 0 Z " fill="#001E44" transform="translate(3448,678)"/>
<path d="M0 0 C155.43 0 310.86 0 471 0 C471 53.13 471 106.26 471 161 C368.37 161 265.74 161 160 161 C160 292.01 160 423.02 160 558 C107.2 558 54.4 558 0 558 C0 373.86 0 189.72 0 0 Z " fill="#001E44" transform="translate(2944,679)"/>
<path d="M0 0 C52.8 0 105.6 0 160 0 C160 184.8 160 369.6 160 560 C107.2 560 54.4 560 0 560 C0 491.03 0 422.06 0 351 C-49.5 351 -99 351 -150 351 C-150 304.47 -150 257.94 -150 210 C-100.5 210 -51 210 0 210 C0 140.7 0 71.4 0 0 Z " fill="#001E44" transform="translate(5514,677)"/>
<path d="M0 0 C52.8 0 105.6 0 160 0 C160 184.8 160 369.6 160 560 C107.2 560 54.4 560 0 560 C0 375.2 0 190.4 0 0 Z " fill="#001E44" transform="translate(5156,677)"/>
<path d="M0 0 C1303.83 0 2607.66 0 3951 0 C3951 4.62 3951 9.24 3951 14 C2647.17 14 1343.34 14 0 14 C0 9.38 0 4.76 0 0 Z " fill="#001E44" transform="translate(1732,1537)"/>
<path d="M0 0 C0.66 0 1.32 0 2 0 C2.13277344 0.60328125 2.26554687 1.2065625 2.40234375 1.828125 C2.57894531 2.62734375 2.75554688 3.4265625 2.9375 4.25 C3.11152344 5.03890625 3.28554687 5.8278125 3.46484375 6.640625 C3.947556 8.76878703 4.46163178 10.88532842 5 13 C5.66 13 6.32 13 7 13 C7.30292969 13.79921875 7.60585937 14.5984375 7.91796875 15.421875 C12.39952199 27.1704392 17.25123379 38.59961594 22.69775391 49.92895508 C25.34432593 55.48233617 27.62364165 61.08754922 29.74609375 66.86328125 C31.67979042 71.70053491 34.05743005 76.28177163 36.44921875 80.90625 C38 84 38 84 39.04296875 86.62109375 C40.35835787 89.89077527 42.16751039 92.79957658 43.9765625 95.81640625 C45 98 45 98 45 102 C43.8354126 102.05534912 42.6708252 102.11069824 41.47094727 102.16772461 C37.1153384 102.37548639 32.7599173 102.58698345 28.40454102 102.79956055 C26.52600884 102.89073576 24.6474284 102.98092252 22.76879883 103.07006836 C20.05536562 103.19900506 17.34213074 103.33159536 14.62890625 103.46484375 C13.80040665 103.50343002 12.97190704 103.5420163 12.11830139 103.58177185 C9.74371599 103.70037784 7.3723802 103.84362869 5 104 C4.17714508 104.04758957 3.35429016 104.09517914 2.50650024 104.14421082 C1.70860077 104.20699722 0.91070129 104.26978363 0.08862305 104.33447266 C-0.62445511 104.38552155 -1.33753326 104.43657043 -2.07221985 104.48916626 C-6.01384104 105.53363863 -7.73873447 109.13779018 -9.75 112.4375 C-10.76919408 113.99066026 -11.79008707 115.54270675 -12.8125 117.09375 C-13.33199219 117.90070313 -13.85148437 118.70765625 -14.38671875 119.5390625 C-17.04693372 123.59701754 -19.89695381 127.51383643 -22.75 131.4375 C-23.29833496 132.19659668 -23.84666992 132.95569336 -24.41162109 133.73779297 C-27.89869098 138.54743525 -31.48557079 143.25100622 -35.24609375 147.8515625 C-37.0154486 150.01892367 -38.73034372 152.22091896 -40.4375 154.4375 C-51.32150089 168.4521798 -62.91911931 181.85758905 -75.09350586 194.76293945 C-79.02649141 198.93334201 -82.84070759 203.18370483 -86.546875 207.55859375 C-88 209 -88 209 -90 209 C-90 209.66 -90 210.32 -90 211 C-91.36328125 212.33984375 -91.36328125 212.33984375 -93.3125 213.9375 C-96.83712738 216.92226368 -100.08628959 220.06998848 -103.3125 223.375 C-107.66092748 227.79550086 -112.23020828 231.78106484 -117.08203125 235.640625 C-119.71129657 237.76656376 -122.25331874 239.95711339 -124.79077148 242.18969727 C-153.4318754 267.28799359 -188.66224612 290.15634181 -224 304.5625 C-224.9075 304.93503906 -225.815 305.30757812 -226.75 305.69140625 C-227.8225 306.12324219 -228.895 306.55507812 -230 307 C-230.72582275 307.29398682 -231.45164551 307.58797363 -232.19946289 307.89086914 C-250.71383536 315.35429759 -269.28546082 321.45780435 -288.68994141 326.16674805 C-292.2814424 327.07084842 -295.8397591 328.07238757 -299.40625 329.0703125 C-306.68564733 331.01890389 -313.89935144 332.17578358 -321.375 333.0625 C-322.71493311 333.2261717 -324.05485802 333.38991049 -325.39477539 333.55371094 C-329.59392645 334.05955218 -333.7964609 334.53226322 -338 335 C-338.68330383 335.07732361 -339.36660767 335.15464722 -340.07061768 335.23431396 C-410.30615825 343.16389752 -480.78304388 330.1859132 -543.29882812 296.45214844 C-546.17655947 294.90508173 -549.06430717 293.37781815 -551.953125 291.8515625 C-566.91875582 283.90314969 -581.63476253 275.75068421 -594.703125 264.875 C-597.10988809 262.91029543 -599.5920167 261.11106802 -602.125 259.3125 C-612.5005509 251.84446479 -622.60494518 243.67385767 -632 235 C-632.88945313 234.20980469 -633.77890625 233.41960937 -634.6953125 232.60546875 C-636.08363281 231.31576172 -636.08363281 231.31576172 -637.5 230 C-638.3559375 229.21625 -639.211875 228.4325 -640.09375 227.625 C-642.5423094 224.25321329 -642.35936262 222.07277641 -642 218 C-640.234375 217.32421875 -640.234375 217.32421875 -638 217 C-636.078125 218.14453125 -636.078125 218.14453125 -634.25 219.8125 C-633.32960938 220.62654297 -633.32960938 220.62654297 -632.390625 221.45703125 C-631 223 -631 223 -631 225 C-630.26982666 225.26433838 -629.53965332 225.52867676 -628.78735352 225.80102539 C-625.99228772 227.00331742 -623.8500192 228.38750035 -621.40234375 230.18359375 C-615.94373226 234.08432941 -610.3139744 237.61152295 -604.5625 241.0625 C-602.96341797 242.02216675 -602.96341797 242.02216675 -601.33203125 243.0012207 C-586.37950258 251.8629846 -570.95245028 260.08816331 -555 267 C-553.71518311 267.57990297 -552.43130005 268.16188012 -551.1484375 268.74609375 C-543.44610875 272.21445863 -535.75790721 275.23641858 -527.6953125 277.76171875 C-524.83878334 278.71892778 -522.13260851 279.76259078 -519.359375 280.921875 C-513.41703096 283.33064459 -507.3226639 284.94965764 -501.125 286.5625 C-500.03058594 286.85318359 -498.93617188 287.14386719 -497.80859375 287.44335938 C-495.60408705 288.02644488 -493.39784431 288.6030051 -491.18994141 289.1730957 C-489.1886431 289.69187707 -487.19033215 290.22247884 -485.19677734 290.77026367 C-459.38467604 297.66478207 -432.16501261 299.59186472 -405.5625 299.5 C-404.01849518 299.49726578 -404.01849518 299.49726578 -402.44329834 299.49447632 C-388.52833813 299.43389657 -374.82589852 298.5266031 -361 297 C-359.67289494 296.86143009 -358.34567354 296.72396757 -357.01831055 296.58789062 C-353.69756519 296.24216543 -350.38001953 295.87525703 -347.0625 295.5 C-345.96744141 295.38269531 -344.87238281 295.26539063 -343.74414062 295.14453125 C-338.53515298 294.55483454 -333.96138014 293.72990939 -329 292 C-326.05418958 291.49981456 -323.09638184 291.18221066 -320.125 290.875 C-319.34125 290.78863281 -318.5575 290.70226563 -317.75 290.61328125 C-315.83396841 290.4029851 -313.9170634 290.20067256 -312 290 C-312 289.34 -312 288.68 -312 288 C-311.33581055 287.8141333 -310.67162109 287.6282666 -309.98730469 287.43676758 C-304.6687291 285.94016874 -299.35809802 284.41833776 -294.05859375 282.85546875 C-292.5435022 282.40917114 -292.5435022 282.40917114 -290.99780273 281.95385742 C-285.8318073 280.31011248 -280.9331527 278.23166432 -276 276 C-274.52523415 275.39016812 -273.04847102 274.78515555 -271.5703125 274.18359375 C-249.66462901 265.19001412 -228.62515206 254.2667788 -209 241 C-208.26072266 240.50258301 -207.52144531 240.00516602 -206.75976562 239.49267578 C-198.09536765 233.62403547 -189.84974917 227.44310837 -181.96484375 220.5625 C-179.26218278 218.2266033 -176.49728479 216.01690768 -173.6875 213.8125 C-168.75518652 209.80001591 -164.24722027 205.42955164 -159.75 200.9375 C-158.75746216 199.94617065 -158.75746216 199.94617065 -157.74487305 198.93481445 C-153.30626732 194.44614298 -149.10352215 189.79566023 -145 185 C-144.28239502 184.16505005 -144.28239502 184.16505005 -143.55029297 183.31323242 C-123.20448034 159.5569557 -105.08124429 134.44599116 -90 107 C-89.34 107 -88.68 107 -88 107 C-87.83636963 106.46270264 -87.67273926 105.92540527 -87.50415039 105.37182617 C-85.61631682 99.42114398 -83.18870396 93.90915797 -80.4375 88.3125 C-77.97331112 83.27663742 -75.61096865 78.39021401 -74 73 C-75.39412109 72.60167969 -75.39412109 72.60167969 -76.81640625 72.1953125 C-88 69 -88 69 -91.703125 67.9296875 C-97.76995153 66.21889992 -103.83208352 65.01197153 -110.0625 64.0625 C-115.06906636 63.25992066 -119.30964123 61.89260091 -124 60 C-125.65672637 59.62033354 -127.32070245 59.26239024 -129 59 C-128 56 -128 56 -126.35546875 55.0078125 C-125.64003906 54.71648437 -124.92460938 54.42515625 -124.1875 54.125 C-111.0516277 48.74978833 -98.02381501 43.14035346 -85 37.5 C-78.45468396 34.6653547 -71.90781513 31.83447513 -65.35546875 29.01611328 C-63.26548335 28.11452546 -61.17916393 27.20506179 -59.09375 26.29296875 C-58.0315625 25.83535156 -56.969375 25.37773438 -55.875 24.90625 C-55.00617187 24.52791016 -54.13734375 24.14957031 -53.2421875 23.75976562 C-51 23 -51 23 -47 23 C-47 22.34 -47 21.68 -47 21 C-46.28714844 20.74605469 -45.57429688 20.49210937 -44.83984375 20.23046875 C-38.48299995 17.9593029 -38.48299995 17.9593029 -32.25 15.375 C-28.85256251 13.9376226 -25.5601837 12.94453853 -22 12 C-22 11.34 -22 10.68 -22 10 C-21.40461426 9.76812988 -20.80922852 9.53625977 -20.19580078 9.29736328 C-17.50338374 8.24531749 -14.81418952 7.18526708 -12.125 6.125 C-10.71927734 5.57779297 -10.71927734 5.57779297 -9.28515625 5.01953125 C-7.94130859 4.48779297 -7.94130859 4.48779297 -6.5703125 3.9453125 C-5.32918701 3.45828857 -5.32918701 3.45828857 -4.06298828 2.96142578 C-1.84094923 2.06910272 -1.84094923 2.06910272 0 0 Z " fill="#FBFBFC" transform="translate(1360,1303)"/>
<path d="M0 0 C76.89 0 153.78 0 233 0 C233 46.53 233 93.06 233 141 C156.11 141 79.22 141 0 141 C0 94.47 0 47.94 0 0 Z " fill="#001E44" transform="translate(4235,887)"/>
<path d="M0 0 C76.89 0 153.78 0 233 0 C233 46.53 233 93.06 233 141 C156.11 141 79.22 141 0 141 C0 94.47 0 47.94 0 0 Z " fill="#001E44" transform="translate(3152,887)"/>
<path d="M0 0 C594 0 1188 0 1800 0 C1800 4.62 1800 9.24 1800 14 C1206 14 612 14 0 14 C0 9.38 0 4.76 0 0 Z " fill="#C81010" transform="translate(1732,1323)"/>
<path d="M0 0 C589.71 0 1179.42 0 1787 0 C1787 4.62 1787 9.24 1787 14 C1197.29 14 607.58 14 0 14 C0 9.38 0 4.76 0 0 Z " fill="#C81010" transform="translate(3896,1323)"/>
<path d="M0 0 C4.29 0 8.58 0 13 0 C17.62 13.86 22.24 27.72 27 42 C31.11027333 32.19355369 31.11027333 32.19355369 34.67578125 22.265625 C34.99810982 21.29227203 34.99810982 21.29227203 35.32695007 20.29925537 C35.99315209 18.28423995 36.65297199 16.26720833 37.3125 14.25 C37.77105674 12.85923393 38.23003884 11.46860803 38.68945312 10.078125 C39.7978576 6.72034525 40.90056188 3.36072788 42 0 C45.96 0 49.92 0 54 0 C57.17992531 7.68234292 59.94688267 15.46812196 62.57421875 23.35205078 C63.25651487 25.39450224 63.9484104 27.43354804 64.640625 29.47265625 C65.07871045 30.78105412 65.51623142 32.08964116 65.953125 33.3984375 C66.34661133 34.57067871 66.74009766 35.74291992 67.14550781 36.95068359 C68 40 68 40 68 44 C68.66 44 69.32 44 70 44 C70.11165497 43.44933365 70.22330994 42.8986673 70.33834839 42.33131409 C71.48707692 36.89307215 72.98231957 31.70652592 74.8203125 26.46484375 C75.08383514 25.70071671 75.34735779 24.93658966 75.61886597 24.14930725 C76.44963638 21.74374715 77.28718191 19.34061338 78.125 16.9375 C78.69446312 15.29247435 79.26347754 13.6472933 79.83203125 12.00195312 C81.21618167 7.99948968 82.60640724 3.99918506 84 0 C87.96 0 91.92 0 96 0 C89.62261362 20.43735069 83.24254084 40.8486952 76 61 C71.38 61 66.76 61 62 61 C60.14285418 55.50265079 58.29159767 50.00336742 56.44580078 44.50219727 C55.81688839 42.63055789 55.18636244 40.7594599 54.55419922 38.88891602 C53.64647731 36.20208765 52.74455223 33.51337371 51.84375 30.82421875 C51.55939087 29.98662521 51.27503174 29.14903168 50.98205566 28.28605652 C50.72178589 27.50547379 50.46151611 26.72489105 50.19335938 25.9206543 C49.96241577 25.23448532 49.73147217 24.54831635 49.49353027 23.84135437 C49 22 49 22 49 19 C48.34 19 47.68 19 47 19 C46.78472656 20.1446875 46.56945313 21.289375 46.34765625 22.46875 C44.84132986 29.2425737 42.48260465 35.75222839 40.2043457 42.29589844 C39.43028565 44.5207358 38.66482628 46.74840215 37.90039062 48.9765625 C37.41195595 50.39079696 36.92304148 51.80486583 36.43359375 53.21875 C36.08982948 54.21859924 36.08982948 54.21859924 35.73912048 55.23864746 C34.11575471 59.88424529 34.11575471 59.88424529 33 61 C30.81360547 61.07258946 28.62499611 61.08373783 26.4375 61.0625 C24.64119141 61.04896484 24.64119141 61.04896484 22.80859375 61.03515625 C21.88175781 61.02355469 20.95492187 61.01195312 20 61 C18.11515359 55.49086543 16.23125254 49.98140872 14.34814453 44.47167969 C13.71036951 42.60603574 13.07235728 40.74047287 12.43408203 38.875 C10.28231138 32.58573018 8.13742603 26.29415948 6 20 C5.70001099 19.11775757 5.40002197 18.23551514 5.09094238 17.32653809 C4.23680396 14.81000773 3.3871417 12.29201537 2.5390625 9.7734375 C2.15250992 8.63607651 2.15250992 8.63607651 1.75814819 7.47573853 C0 2.23021712 0 2.23021712 0 0 Z " fill="#000000" transform="translate(3731,1406)"/>
<path d="M0 0 C3.3 0 6.6 0 10 0 C12.62690918 3.06361616 14.15491278 5.48787059 16 9 C17.03265912 10.72368102 18.06596711 12.44701952 19.11218262 14.1625061 C20.24245548 16.01716547 21.35956856 17.87912281 22.47265625 19.74414062 C22.84664551 20.3703833 23.22063477 20.99662598 23.60595703 21.6418457 C24.37761293 22.93732522 25.14742983 24.23390167 25.91552734 25.53149414 C27.03614731 27.42209761 28.16570669 29.30710067 29.296875 31.19140625 C29.96041992 32.30717041 30.62396484 33.42293457 31.30761719 34.57250977 C32.14534668 35.77411743 32.14534668 35.77411743 33 37 C33.66 37 34.32 37 35 37 C35.51046875 36.07703125 36.0209375 35.1540625 36.546875 34.203125 C41.06700565 26.07639477 45.71717063 18.03771699 50.5 10.0625 C51.02819336 9.18045898 51.55638672 8.29841797 52.10058594 7.38964844 C55.8704556 1.1295444 55.8704556 1.1295444 57 0 C60.3 0 63.6 0 67 0 C67 20.13 67 40.26 67 61 C63.37 61 59.74 61 56 61 C55.67 48.79 55.34 36.58 55 24 C49.44863636 33.49791955 49.44863636 33.49791955 43.90063477 42.99780273 C43.20601417 44.18480462 42.51127924 45.3717396 41.81640625 46.55859375 C41.45446167 47.17963989 41.09251709 47.80068604 40.71960449 48.44055176 C38.1140718 52.8859282 38.1140718 52.8859282 37 54 C33.71044922 54.44311523 33.71044922 54.44311523 30 54 C28.0823854 51.90607372 26.96038672 50.34238076 25.6328125 47.91015625 C25.26775604 47.29103867 24.90269958 46.67192108 24.52658081 46.03404236 C23.36782992 44.05680672 22.2463384 42.06114624 21.125 40.0625 C20.34876944 38.72060517 19.57014837 37.38009012 18.7890625 36.04101562 C17.36509563 33.59696542 15.95773364 31.14466036 14.56298828 28.68383789 C13.2474034 26.16234068 13.2474034 26.16234068 12 25 C11.67 36.88 11.34 48.76 11 61 C7.37 61 3.74 61 0 61 C0 40.87 0 20.74 0 0 Z " fill="#000000" transform="translate(2982,1406)"/>
<path d="M0 0 C11 0 11 0 13.5078125 1.80078125 C14.30832031 3.04408203 14.30832031 3.04408203 15.125 4.3125 C16.08212891 5.69501953 16.08212891 5.69501953 17.05859375 7.10546875 C18.01958984 8.53826172 18.01958984 8.53826172 19 10 C20.37586669 11.72445479 21.77243036 13.43256643 23.1875 15.125 C27.72849096 20.66007829 32.24072233 26.21822726 36.74682617 31.78173828 C37.28412354 32.44415527 37.8214209 33.10657227 38.375 33.7890625 C39.09816406 34.68165771 39.09816406 34.68165771 39.8359375 35.59228516 C40.93492947 36.96636897 40.93492947 36.96636897 42 38 C42.33 25.46 42.66 12.92 43 0 C46.96 0 50.92 0 55 0 C55 20.13 55 40.26 55 61 C44 61 44 61 40.80078125 58.5078125 C39.93683415 57.40643343 39.10797694 56.27680592 38.3125 55.125 C37.85738037 54.52929199 37.40226074 53.93358398 36.93334961 53.31982422 C36.01786077 52.11819474 35.11585844 50.90615497 34.22851562 49.68359375 C32.58535709 47.43176123 30.82664084 45.28279211 29.0625 43.125 C27.70795215 41.41696889 26.35384132 39.70859118 25 38 C22.83563959 35.28981999 20.66762733 32.5825673 18.5 29.875 C16.685 27.60625 14.87 25.3375 13 23 C12.67 35.54 12.34 48.08 12 61 C8.04 61 4.08 61 0 61 C0 40.87 0 20.74 0 0 Z " fill="#000000" transform="translate(2520,1406)"/>
<path d="M0 0 C5.424375 -0.0825 10.84875 -0.165 16.4375 -0.25 C18.97715454 -0.30462402 18.97715454 -0.30462402 21.56811523 -0.36035156 C31.07989543 -0.47916343 37.8353825 0.63177119 45.875 5.875 C50.43159642 10.43159642 51.83496544 15.52448154 52.25 21.75 C52.10880462 27.61503869 50.94164182 31.98950563 46.796875 36.28125 C44.58065138 38.2605189 42.33322462 40.16081246 40 42 C40.39380859 42.54003662 40.78761719 43.08007324 41.19335938 43.63647461 C42.96468533 46.06837937 44.73238579 48.50289623 46.5 50.9375 C47.43005859 52.21270508 47.43005859 52.21270508 48.37890625 53.51367188 C48.96542969 54.32255859 49.55195313 55.13144531 50.15625 55.96484375 C50.70087891 56.7137085 51.24550781 57.46257324 51.80664062 58.23413086 C53 60 53 60 53 61 C48.31677777 62.05996006 43.53213439 62.93408806 39 61 C36.55448619 58.47309351 34.84515125 55.58037899 33.0625 52.5625 C29.96261922 46.90950035 29.96261922 46.90950035 25.02099609 43.09667969 C20.45154516 42.12274053 16.79369352 42.60052554 12 43 C12 48.94 12 54.88 12 61 C8.04 61 4.08 61 0 61 C0 40.87 0 20.74 0 0 Z M12 9 C12 17.25 12 25.5 12 34 C24.43159216 34.70328382 24.43159216 34.70328382 36 31 C39.42824483 27.29075149 39.58278084 24.37001646 39.40234375 19.4765625 C38.70375129 15.17648851 37.40593964 13.78035889 34 11 C27.14180215 8.06280924 19.27961006 8.84674505 12 9 Z " fill="#000000" transform="translate(4733,1406)"/>
<path d="M0 0 C5.424375 -0.0825 10.84875 -0.165 16.4375 -0.25 C18.97715454 -0.30462402 18.97715454 -0.30462402 21.56811523 -0.36035156 C31.07989543 -0.47916343 37.8353825 0.63177119 45.875 5.875 C50.43159642 10.43159642 51.83496544 15.52448154 52.25 21.75 C52.10880462 27.61503869 50.94164182 31.98950563 46.796875 36.28125 C44.58065138 38.2605189 42.33322462 40.16081246 40 42 C40.39380859 42.54003662 40.78761719 43.08007324 41.19335938 43.63647461 C42.96468533 46.06837937 44.73238579 48.50289623 46.5 50.9375 C47.43005859 52.21270508 47.43005859 52.21270508 48.37890625 53.51367188 C48.96542969 54.32255859 49.55195312 55.13144531 50.15625 55.96484375 C50.70087891 56.7137085 51.24550781 57.46257324 51.80664062 58.23413086 C53 60 53 60 53 61 C48.31677777 62.05996006 43.53213439 62.93408806 39 61 C36.55448619 58.47309351 34.84515125 55.58037899 33.0625 52.5625 C29.96261922 46.90950035 29.96261922 46.90950035 25.02099609 43.09667969 C20.45154516 42.12274053 16.79369352 42.60052554 12 43 C12 48.94 12 54.88 12 61 C8.04 61 4.08 61 0 61 C0 40.87 0 20.74 0 0 Z M12 9 C12 17.25 12 25.5 12 34 C24.43159216 34.70328382 24.43159216 34.70328382 36 31 C39.42824483 27.29075149 39.58278084 24.37001646 39.40234375 19.4765625 C38.70375129 15.17648851 37.40593964 13.78035889 34 11 C27.14180215 8.06280924 19.27961006 8.84674505 12 9 Z " fill="#000000" transform="translate(1915,1406)"/>
<path d="M0 0 C3.96 0 7.92 0 12 0 C12 8.58 12 17.16 12 26 C22.23 26 32.46 26 43 26 C43 17.42 43 8.84 43 0 C46.96 0 50.92 0 55 0 C55 20.13 55 40.26 55 61 C51.04 61 47.08 61 43 61 C43 52.42 43 43.84 43 35 C32.77 35 22.54 35 12 35 C12 43.58 12 52.16 12 61 C8.04 61 4.08 61 0 61 C0 40.87 0 20.74 0 0 Z " fill="#000000" transform="translate(4120,1406)"/>
<path d="M0 0 C3.96 0 7.92 0 12 0 C12.33 9.57 12.66 19.14 13 29 C14.464375 27.370625 15.92875 25.74125 17.4375 24.0625 C18.4474081 22.97236847 19.46017357 21.88487288 20.4765625 20.80078125 C22.33636322 18.81225796 24.16738304 16.80935313 25.96386719 14.76318359 C39.01478955 -0.09778845 39.01478955 -0.09778845 45.203125 -1.08203125 C48.64302469 -1.06462285 51.6627776 -0.80918388 55 0 C50.41804688 5.43926825 45.63987985 10.64946752 40.75 15.8125 C40.03070313 16.57498047 39.31140625 17.33746094 38.5703125 18.12304688 C33.37202381 23.62797619 33.37202381 23.62797619 31 26 C31.16769323 30.19233065 34.22983048 32.90183126 36.875 35.875 C37.8731242 37.02558548 38.86914966 38.17799431 39.86328125 39.33203125 C40.37842285 39.92967285 40.89356445 40.52731445 41.42431641 41.14306641 C44.04118844 44.22703428 46.55878269 47.38641818 49.0625 50.5625 C49.5270459 51.14563965 49.9915918 51.7287793 50.47021484 52.32958984 C52.64641895 55.10055303 54.59637922 57.75660509 56 61 C44.29838163 62.66925104 44.29838163 62.66925104 39.16015625 58.9375 C36.58000782 56.06795104 34.27207503 53.11883486 32 50 C30.39840953 47.91748768 28.76480562 45.86558997 27.125 43.8125 C26.42632812 42.89082031 25.72765625 41.96914062 25.0078125 41.01953125 C24.34523437 40.35308594 23.68265625 39.68664063 23 39 C18.93754288 38.64567262 18.93754288 38.64567262 15.8125 41 C10.9207791 46.0519032 12.01561143 54.42758593 12 61 C8.04 61 4.08 61 0 61 C0 40.87 0 20.74 0 0 Z " fill="#000000" transform="translate(5561,1406)"/>
<path d="M0 0 C1.68359375 1.37109375 1.68359375 1.37109375 3.99609375 3.62109375 C2.55645736 6.98024533 0.87192786 9.33734313 -2.00390625 11.62109375 C-5.47115978 11.62109375 -8.42412675 9.25249024 -11.34765625 7.54296875 C-16.71419779 4.55593148 -22.7977739 5.10061888 -28.56640625 6.68359375 C-34.18981197 8.6988074 -37.10932102 12.51553651 -40.140625 17.484375 C-42.17744526 22.52573555 -41.80331932 28.84585859 -40.31640625 34.0078125 C-37.5826406 39.98792486 -33.76654134 43.56626944 -27.56640625 45.93359375 C-20.81000823 47.23746003 -16.75364855 46.54959155 -10.00390625 44.62109375 C-9.67390625 38.35109375 -9.34390625 32.08109375 -9.00390625 25.62109375 C-5.04390625 25.62109375 -1.08390625 25.62109375 2.99609375 25.62109375 C3.15781312 29.70600532 3.27689233 33.78454631 3.37109375 37.87109375 C3.42136719 39.02996094 3.47164062 40.18882813 3.5234375 41.3828125 C3.57862075 44.56504632 3.55777123 47.48740387 2.99609375 50.62109375 C0.24609375 53.30859375 0.24609375 53.30859375 -3.00390625 54.62109375 C-3.73351563 54.9665625 -4.463125 55.31203125 -5.21484375 55.66796875 C-15.46596881 58.9986592 -27.53499591 59.28889576 -37.53515625 55.01171875 C-45.83397978 50.33706499 -50.72420647 44.41008979 -53.71484375 35.50390625 C-56.01571418 27.10722324 -55.18414991 18.53406235 -51.28515625 10.75 C-46.37298754 2.58801235 -40.20185066 -1.97959145 -31.17578125 -4.98828125 C-20.64173176 -6.88289447 -8.9911582 -6.18689833 0 0 Z " fill="#000000" transform="translate(2708.00390625,1410.37890625)"/>
<path d="M0 0 C4.29 0 8.58 0 13 0 C19.07458572 12.48664842 24.78839575 25.12924768 30.4375 37.8125 C30.97479736 39.01513489 30.97479736 39.01513489 31.52294922 40.24206543 C32.55881513 42.56233396 33.59060619 44.88436984 34.62109375 47.20703125 C34.93223618 47.90333145 35.2433786 48.59963165 35.56394958 49.31703186 C37.27355028 53.18634273 38.65565262 56.96695786 40 61 C35.71 61 31.42 61 27 61 C25.02 56.71 23.04 52.42 21 48 C11.43 48 1.86 48 -8 48 C-9.98 52.29 -11.96 56.58 -14 61 C-18.29 61 -22.58 61 -27 61 C-22.42769077 49.7573878 -17.39857874 38.73387987 -12.375 27.6875 C-11.0835782 24.8445851 -9.79269418 22.0014281 -8.50259399 19.15791321 C-7.70541442 17.4011671 -6.90742867 15.64478651 -6.10848999 13.88883972 C-4.01624991 9.28162253 -1.97432421 4.65901418 0 0 Z M6 13 C4.32742736 16.78908876 2.66294885 20.58167885 1 24.375 C0.52304688 25.45523437 0.04609375 26.53546875 -0.4453125 27.6484375 C-0.89648438 28.6796875 -1.34765625 29.7109375 -1.8125 30.7734375 C-2.23144531 31.72653809 -2.65039062 32.67963867 -3.08203125 33.66162109 C-4.12180594 35.89159667 -4.12180594 35.89159667 -4 38 C2.93 38 9.86 38 17 38 C16.23055477 34.15277385 15.51694134 31.59332263 13.93359375 28.13671875 C13.53076172 27.25048828 13.12792969 26.36425781 12.71289062 25.45117188 C12.29201172 24.53916016 11.87113281 23.62714844 11.4375 22.6875 C11.01275391 21.75615234 10.58800781 20.82480469 10.15039062 19.86523438 C9.10493657 17.5746328 8.05468244 15.28636341 7 13 C6.67 13 6.34 13 6 13 Z " fill="#000000" transform="translate(3279,1406)"/>
<path d="M0 0 C4.29 0 8.58 0 13 0 C19.07458572 12.48664842 24.78839575 25.12924768 30.4375 37.8125 C30.97479736 39.01513489 30.97479736 39.01513489 31.52294922 40.24206543 C32.55881513 42.56233396 33.59060619 44.88436984 34.62109375 47.20703125 C34.93223618 47.90333145 35.2433786 48.59963165 35.56394958 49.31703186 C37.27355028 53.18634273 38.65565262 56.96695786 40 61 C35.71 61 31.42 61 27 61 C25.02 56.71 23.04 52.42 21 48 C11.43 48 1.86 48 -8 48 C-9.98 52.29 -11.96 56.58 -14 61 C-18.29 61 -22.58 61 -27 61 C-22.42769077 49.7573878 -17.39857874 38.73387987 -12.375 27.6875 C-11.0835782 24.8445851 -9.79269418 22.0014281 -8.50259399 19.15791321 C-7.70541442 17.4011671 -6.90742867 15.64478651 -6.10848999 13.88883972 C-4.01624991 9.28162253 -1.97432421 4.65901418 0 0 Z M6 13 C4.32742736 16.78908876 2.66294885 20.58167885 1 24.375 C0.52304688 25.45523437 0.04609375 26.53546875 -0.4453125 27.6484375 C-0.89648438 28.6796875 -1.34765625 29.7109375 -1.8125 30.7734375 C-2.23144531 31.72653809 -2.65039062 32.67963867 -3.08203125 33.66162109 C-4.12180594 35.89159667 -4.12180594 35.89159667 -4 38 C2.93 38 9.86 38 17 38 C16.23055477 34.15277385 15.51694134 31.59332263 13.93359375 28.13671875 C13.53076172 27.25048828 13.12792969 26.36425781 12.71289062 25.45117188 C12.29201172 24.53916016 11.87113281 23.62714844 11.4375 22.6875 C11.01275391 21.75615234 10.58800781 20.82480469 10.15039062 19.86523438 C9.10493657 17.5746328 8.05468244 15.28636341 7 13 C6.67 13 6.34 13 6 13 Z " fill="#000000" transform="translate(2191,1406)"/>
<path d="M0 0 C5.424375 -0.0825 10.84875 -0.165 16.4375 -0.25 C18.97715454 -0.30462402 18.97715454 -0.30462402 21.56811523 -0.36035156 C31.07989543 -0.47916343 37.8353825 0.63177119 45.875 5.875 C50.43159642 10.43159642 51.83496544 15.52448154 52.25 21.75 C52.14158418 27.05251905 51.03646297 31.66885505 47.48828125 35.73046875 C39.86860751 42.665228 33.04722911 43.42921597 23.0625 43.1875 C21.99708984 43.17396484 20.93167969 43.16042969 19.83398438 43.14648438 C17.22243609 43.11135144 14.61115043 43.05755189 12 43 C12 48.94 12 54.88 12 61 C8.04 61 4.08 61 0 61 C0 40.87 0 20.74 0 0 Z M12 9 C12 17.25 12 25.5 12 34 C24.43159216 34.70328382 24.43159216 34.70328382 36 31 C39.42824483 27.29075149 39.58278084 24.37001646 39.40234375 19.4765625 C38.70375129 15.17648851 37.40593964 13.78035889 34 11 C27.14180215 8.06280924 19.27961006 8.84674505 12 9 Z " fill="#000000" transform="translate(3133,1406)"/>
<path d="M0 0 C14.85 0 29.7 0 45 0 C45 2.97 45 5.94 45 9 C34.11 9 23.22 9 12 9 C12 14.61 12 20.22 12 26 C21.57 26 31.14 26 41 26 C41 28.97 41 31.94 41 35 C31.43 35 21.86 35 12 35 C12 40.61 12 46.22 12 52 C23.22 52 34.44 52 46 52 C46 54.97 46 57.94 46 61 C30.82 61 15.64 61 0 61 C0 40.87 0 20.74 0 0 Z " fill="#000000" transform="translate(4606,1406)"/>
<path d="M0 0 C14.85 0 29.7 0 45 0 C45 2.97 45 5.94 45 9 C34.11 9 23.22 9 12 9 C12 14.61 12 20.22 12 26 C21.57 26 31.14 26 41 26 C41 28.97 41 31.94 41 35 C31.43 35 21.86 35 12 35 C12 40.61 12 46.22 12 52 C23.22 52 34.44 52 46 52 C46 54.97 46 57.94 46 61 C30.82 61 15.64 61 0 61 C0 40.87 0 20.74 0 0 Z " fill="#000000" transform="translate(4350,1406)"/>
<path d="M0 0 C14.85 0 29.7 0 45 0 C45 2.97 45 5.94 45 9 C34.11 9 23.22 9 12 9 C12 14.61 12 20.22 12 26 C21.57 26 31.14 26 41 26 C41 28.97 41 31.94 41 35 C31.43 35 21.86 35 12 35 C12 40.61 12 46.22 12 52 C23.22 52 34.44 52 46 52 C46 54.97 46 57.94 46 61 C30.82 61 15.64 61 0 61 C0 40.87 0 20.74 0 0 Z " fill="#000000" transform="translate(2046,1406)"/>
<path d="M0 0 C2.18634231 1.55600572 4.04480278 3.1477079 6 5 C4.4169423 9.2742558 1.49431596 11.26531794 -2 14 C-2.66 13.401875 -3.32 12.80375 -4 12.1875 C-10.08290028 7.75205188 -15.18650194 6.4065355 -22.67578125 7.49609375 C-29.00290543 8.86785681 -32.26256514 11.80911825 -36 17 C-38.6553665 22.56229403 -38.76972934 27.94427225 -38 34 C-35.99711584 39.12307973 -32.68437598 43.1001482 -28 46 C-22.23626982 48.37330066 -17.00280393 48.37041504 -11 47 C-8.47996235 45.85975483 -6.34300139 44.49952089 -4 43 C-2.0078125 42.19140625 -2.0078125 42.19140625 0 42 C1.703125 43.21484375 1.703125 43.21484375 3.25 44.9375 C3.77078125 45.50339844 4.2915625 46.06929687 4.828125 46.65234375 C5.40820312 47.31943359 5.40820312 47.31943359 6 48 C4.62740684 51.29142237 3.29739691 52.79419953 0.25 54.625 C-0.40484375 55.02976562 -1.0596875 55.43453125 -1.734375 55.8515625 C-10.31695683 60.20204363 -20.67681478 60.2941234 -30.015625 58.3828125 C-37.50097888 55.7229226 -44.1455364 50.32426422 -48.4375 43.625 C-52.24933877 34.78153406 -53.05119043 25.88932437 -50.28125 16.5859375 C-46.70043878 7.60304038 -41.03761868 1.95448427 -32.33203125 -2.08984375 C-22.32639919 -5.99488943 -9.27589157 -5.49877663 0 0 Z " fill="#000000" transform="translate(5476,1409)"/>
<path d="M0 0 C2.18634231 1.55600572 4.04480278 3.1477079 6 5 C4.4169423 9.2742558 1.49431596 11.26531794 -2 14 C-2.66 13.401875 -3.32 12.80375 -4 12.1875 C-10.08290028 7.75205188 -15.18650194 6.4065355 -22.67578125 7.49609375 C-29.00290543 8.86785681 -32.26256514 11.80911825 -36 17 C-38.6553665 22.56229403 -38.76972934 27.94427225 -38 34 C-35.99711584 39.12307973 -32.68437598 43.1001482 -28 46 C-22.23626982 48.37330066 -17.00280393 48.37041504 -11 47 C-8.47996235 45.85975483 -6.34300139 44.49952089 -4 43 C-2.0078125 42.19140625 -2.0078125 42.19140625 0 42 C1.703125 43.21484375 1.703125 43.21484375 3.25 44.9375 C3.77078125 45.50339844 4.2915625 46.06929687 4.828125 46.65234375 C5.40820312 47.31943359 5.40820312 47.31943359 6 48 C4.62740684 51.29142237 3.29739691 52.79419953 0.25 54.625 C-0.40484375 55.02976562 -1.0596875 55.43453125 -1.734375 55.8515625 C-10.31695683 60.20204363 -20.67681478 60.2941234 -30.015625 58.3828125 C-37.50097888 55.7229226 -44.1455364 50.32426422 -48.4375 43.625 C-52.24933877 34.78153406 -53.05119043 25.88932437 -50.28125 16.5859375 C-46.70043878 7.60304038 -41.03761868 1.95448427 -32.33203125 -2.08984375 C-22.32639919 -5.99488943 -9.27589157 -5.49877663 0 0 Z " fill="#000000" transform="translate(5129,1409)"/>
<path d="M0 0 C2.18634231 1.55600572 4.04480278 3.1477079 6 5 C4.4169423 9.2742558 1.49431596 11.26531794 -2 14 C-2.66 13.401875 -3.32 12.80375 -4 12.1875 C-10.08290028 7.75205188 -15.18650194 6.4065355 -22.67578125 7.49609375 C-29.00290543 8.86785681 -32.26256514 11.80911825 -36 17 C-38.6553665 22.56229403 -38.76972934 27.94427225 -38 34 C-35.99711584 39.12307973 -32.68437598 43.1001482 -28 46 C-22.23626982 48.37330066 -17.00280393 48.37041504 -11 47 C-8.47996235 45.85975483 -6.34300139 44.49952089 -4 43 C-2.0078125 42.19140625 -2.0078125 42.19140625 0 42 C1.703125 43.21484375 1.703125 43.21484375 3.25 44.9375 C3.77078125 45.50339844 4.2915625 46.06929687 4.828125 46.65234375 C5.40820312 47.31943359 5.40820312 47.31943359 6 48 C4.62740684 51.29142237 3.29739691 52.79419953 0.25 54.625 C-0.40484375 55.02976562 -1.0596875 55.43453125 -1.734375 55.8515625 C-10.31695683 60.20204363 -20.67681478 60.2941234 -30.015625 58.3828125 C-37.50097888 55.7229226 -44.1455364 50.32426422 -48.4375 43.625 C-52.24933877 34.78153406 -53.05119043 25.88932437 -50.28125 16.5859375 C-46.70043878 7.60304038 -41.03761868 1.95448427 -32.33203125 -2.08984375 C-22.32639919 -5.99488943 -9.27589157 -5.49877663 0 0 Z " fill="#000000" transform="translate(3440,1409)"/>
<path d="M0 0 C2.18634231 1.55600572 4.04480278 3.1477079 6 5 C4.4169423 9.2742558 1.49431596 11.26531794 -2 14 C-2.66 13.401875 -3.32 12.80375 -4 12.1875 C-10.08290028 7.75205188 -15.18650194 6.4065355 -22.67578125 7.49609375 C-29.00290543 8.86785681 -32.26256514 11.80911825 -36 17 C-38.6553665 22.56229403 -38.76972934 27.94427225 -38 34 C-35.99711584 39.12307973 -32.68437598 43.1001482 -28 46 C-22.23626982 48.37330066 -17.00280393 48.37041504 -11 47 C-8.47996235 45.85975483 -6.34300139 44.49952089 -4 43 C-2.0078125 42.19140625 -2.0078125 42.19140625 0 42 C1.703125 43.21484375 1.703125 43.21484375 3.25 44.9375 C3.77078125 45.50339844 4.2915625 46.06929687 4.828125 46.65234375 C5.40820312 47.31943359 5.40820312 47.31943359 6 48 C4.62740684 51.29142237 3.29739691 52.79419953 0.25 54.625 C-0.40484375 55.02976562 -1.0596875 55.43453125 -1.734375 55.8515625 C-10.31695683 60.20204363 -20.67681478 60.2941234 -30.015625 58.3828125 C-37.50097888 55.7229226 -44.1455364 50.32426422 -48.4375 43.625 C-52.24933877 34.78153406 -53.05119043 25.88932437 -50.28125 16.5859375 C-46.70043878 7.60304038 -41.03761868 1.95448427 -32.33203125 -2.08984375 C-22.32639919 -5.99488943 -9.27589157 -5.49877663 0 0 Z " fill="#000000" transform="translate(1830,1409)"/>
<path d="M0 0 C4.62 0 9.24 0 14 0 C20.27 14.52 26.54 29.04 33 44 C36.02177407 37.95645186 38.93312991 32.05264188 41.515625 25.83984375 C41.96757233 24.76592125 41.96757233 24.76592125 42.4286499 23.67030334 C43.37227788 21.42735357 44.31156463 19.18262673 45.25 16.9375 C46.20306369 14.66038946 47.15712485 12.38372059 48.11419678 10.10829163 C48.7053616 8.70259902 49.29419001 7.29592106 49.88043213 5.88816833 C51.88759953 1.11240047 51.88759953 1.11240047 53 0 C55.01964199 -0.07244053 57.04167124 -0.08377188 59.0625 -0.0625 C60.71958984 -0.04896484 60.71958984 -0.04896484 62.41015625 -0.03515625 C63.26480469 -0.02355469 64.11945313 -0.01195312 65 0 C62.5234527 8.0011528 59.2412108 15.59387614 55.875 23.25 C55.00174007 25.24692282 54.12973663 27.2443912 53.2578125 29.24189758 C52.67558304 30.57549992 52.09290241 31.90890536 51.50976562 33.24211121 C48.49939012 40.12933823 45.55311059 47.04375147 42.62841797 53.96777344 C40.1084646 59.8915354 40.1084646 59.8915354 39 61 C36.81360547 61.07258946 34.62499611 61.08373783 32.4375 61.0625 C30.64119141 61.04896484 30.64119141 61.04896484 28.80859375 61.03515625 C27.88175781 61.02355469 26.95492187 61.01195312 26 61 C25.20442708 59.1640625 24.40885417 57.328125 23.61328125 55.4921875 C23.0927417 54.29102295 22.57220215 53.0898584 22.03588867 51.85229492 C20.87818725 49.18071777 19.72083571 46.50898939 18.5637207 43.8371582 C15.77028497 37.38776974 12.97501299 30.93920906 10.16993713 24.49487305 C8.9646395 21.72558869 7.76063793 18.95574174 6.55673218 16.18585205 C5.97683754 14.85268277 5.39629043 13.5197971 4.81509399 12.18719482 C4.00400912 10.32732791 3.19530216 8.46642454 2.38671875 6.60546875 C1.92483154 5.54481201 1.46294434 4.48415527 0.98706055 3.39135742 C0 1 0 1 0 0 Z " fill="#000000" transform="translate(4467,1406)"/>
<path d="M0 0 C4.64842923 -1.04917525 8.39023329 -1.3345402 13 0 C17.04993624 3.80348714 19.45229774 9.07147035 21.94384766 13.96484375 C23.36023865 16.69416306 24.98499407 19.27545681 26.625 21.875 C29 25.74585635 29 25.74585635 29 28 C31.89827317 25.46875469 33.36911156 22.64115636 35.1171875 19.23828125 C36.05074274 17.52247792 36.98437325 15.80671337 37.92089844 14.0925293 C38.8685534 12.32452717 39.77047329 10.53226016 40.671875 8.74023438 C42.56192091 5.35030763 44.17423565 2.66852515 47 0 C51.51014115 -1.01668845 55.46429746 -0.76749385 60 0 C56.87911698 6.03279529 53.53761245 11.79757215 49.73046875 17.42578125 C40.12720338 31.77886478 34.23093071 43.12692887 36 61 C32.04 61 28.08 61 24 61 C24.04382812 59.5975 24.08765625 58.195 24.1328125 56.75 C24.23975951 43.61876765 22.32599638 35.72628313 14.58105469 25.25341797 C11.39038463 20.70587557 8.67287434 15.85753615 5.875 11.0625 C5.00439941 9.59393555 5.00439941 9.59393555 4.11621094 8.09570312 C0 1.13056928 0 1.13056928 0 0 Z " fill="#000000" transform="translate(4855,1406)"/>
<path d="M0 0 C17.49 0 34.98 0 53 0 C53 2.97 53 5.94 53 9 C46.07 9 39.14 9 32 9 C32 26.16 32 43.32 32 61 C28.04 61 24.08 61 20 61 C20 43.84 20 26.68 20 9 C13.4 9 6.8 9 0 9 C0 6.03 0 3.06 0 0 Z " fill="#000000" transform="translate(3991,1406)"/>
<path d="M0 0 C17.49 0 34.98 0 53 0 C53 2.97 53 5.94 53 9 C46.07 9 39.14 9 32 9 C32 26.16 32 43.32 32 61 C28.04 61 24.08 61 20 61 C20 43.84 20 26.68 20 9 C13.4 9 6.8 9 0 9 C0 6.03 0 3.06 0 0 Z " fill="#000000" transform="translate(3516,1406)"/>
<path d="M0 0 C17.49 0 34.98 0 53 0 C53 2.97 53 5.94 53 9 C46.07 9 39.14 9 32 9 C32 26.16 32 43.32 32 61 C28.04 61 24.08 61 20 61 C20 43.84 20 26.68 20 9 C13.4 9 6.8 9 0 9 C0 6.03 0 3.06 0 0 Z " fill="#000000" transform="translate(2295,1406)"/>
<path d="M0 0 C3.96 0 7.92 0 12 0 C12 17.16 12 34.32 12 52 C22.56 52 33.12 52 44 52 C44 54.97 44 57.94 44 61 C29.48 61 14.96 61 0 61 C0 40.87 0 20.74 0 0 Z " fill="#000000" transform="translate(5213,1406)"/>
<path d="M0 0 C3.96 0 7.92 0 12 0 C12 20.13 12 40.26 12 61 C8.04 61 4.08 61 0 61 C0 40.87 0 20.74 0 0 Z " fill="#000000" transform="translate(5333,1406)"/>
<path d="M0 0 C3.96 0 7.92 0 12 0 C12 20.13 12 40.26 12 61 C8.04 61 4.08 61 0 61 C0 40.87 0 20.74 0 0 Z " fill="#000000" transform="translate(3903,1406)"/>
<path d="M0 0 C3.96 0 7.92 0 12 0 C12 20.13 12 40.26 12 61 C8.04 61 4.08 61 0 61 C0 40.87 0 20.74 0 0 Z " fill="#000000" transform="translate(2886,1406)"/>
<path d="M0 0 C3.96 0 7.92 0 12 0 C12 20.13 12 40.26 12 61 C8.04 61 4.08 61 0 61 C0 40.87 0 20.74 0 0 Z " fill="#000000" transform="translate(2424,1406)"/>
</svg>